<svg xmlns="http://www.w3.org/2000/svg" viewBox="0 0 86.82 79.95">
  <g fill="#3d49f2">
    <path d="M40.6 80A40 40 0 011.49 48.31a2.5 2.5 0 014.89-1 35 35 0 0068.93-2.92 2.5 2.5 0 115 .62A40 40 0 0140.6 80zM4 34.51a3.27 3.27 0 01-.53 0 2.5 2.5 0 01-1.91-3A40 40 0 0127 2.39 40 40 0 0164 7.5a2.5 2.5 0 11-3 4.06A34.74 34.74 0 0040.6 5 35.15 35.15 0 006.41 32.54 2.5 2.5 0 014 34.51z"/>
    <circle cx="40.6" cy="39.98" r="4.37"/>
    <path d="M40.6 51.84A11.87 11.87 0 1150.88 34a2.5 2.5 0 01-4.33 2.5 6.88 6.88 0 100 6.87 2.5 2.5 0 014.33 2.5 11.92 11.92 0 01-10.28 5.97z"/>
    <path d="M40.6 65.9a25.8 25.8 0 01-10.37-2.16 2.5 2.5 0 112-4.58 20.95 20.95 0 0028.88-15 2.5 2.5 0 114.89 1A26 26 0 0140.6 65.9zM19 51.44a2.48 2.48 0 01-2.31-1.54 25.92 25.92 0 0142.24-28.25 2.5 2.5 0 01-3.53 3.53A20.93 20.93 0 0021.26 48 2.5 2.5 0 0119 51.44z"/>
    <circle cx="24.04" cy="56.54" r="3.12"/>
    <circle cx="68.53" cy="14.99" r="3.12"/>
    <circle cx="3.12" cy="39.98" r="3.12"/>
    <path d="M84.32 37.79h-35.6a2.5 2.5 0 010-5h35.6a2.5 2.5 0 010 5zM63.55 47.16H48.72a2.5 2.5 0 010-5h14.83a2.5 2.5 0 010 5zM84.32 47.16h-6.53a2.5 2.5 0 010-5h6.53a2.5 2.5 0 010 5z"/>
  </g>
</svg>
